# xmcd
# 
# Track frame offsets:
#     182
#     15712
#     37962
# 
# Disc length: 893
# 
# Revision: 0
# Processed by: cddbd v1.5.2PL0 Copyright (c) Steve Scherf et al.
# Submitted via: fre:ac v1.0.17
# 
DISCID=18037b03
DTITLE=Tony Banks - Still It Takes Me By Surprise
DYEAR=1992
DGENRE=
TTITLE0=Still It Takes Me By Surprise [edit]
TTITLE1=The Final Curtain
TTITLE2=Still It Takes Me By Surprise [full length]
EXTD=
EXTT0=
EXTT1=
EXTT2=
PLAYORDER=
